<svg xmlns="http://www.w3.org/2000/svg" enable-background="new 0 0 24 24" viewBox="0 0 24 24" id="firebase"><polygon fill="#F57F17" points="12.314 10.903 3.336 19.254 10.086 6.408 12.314 10.903"></polygon><path fill="#FFA000" d="M10.086,6.408l-6.75,12.846L6.344,0.477c0.113-0.582,0.443-0.641,0.741-0.126L10.086,6.408L10.086,6.408z"></path><polygon fill="#D56F14" points="6.711 12.831 3.336 19.254 6.711 16.115 6.711 12.831"></polygon><path fill="#DE8B00" d="M6.689,0H6.67C6.525,0.007,6.404,0.169,6.344,0.477L3.336,19.254l3.375-6.423V0.002C6.704,0.001,6.697,0,6.689,0L6.689,0z"></path><path fill="#FFA000" d="M14.714,8.669l-2.4,2.235l-2.229-4.496l1.152-2.585c0.291-0.516,0.766-0.523,1.058,0L14.714,8.669L14.714,8.669z"></path><path fill="#DE8B00" d="M11.767,3.433c-0.192,0-0.385,0.131-0.531,0.389l-1.152,2.585L12,10.271V3.499C11.925,3.455,11.846,3.433,11.767,3.433L11.767,3.433z"></path><path fill="#FFCA28" d="M17.346,5.251c0.43-0.41,0.873-0.272,0.984,0.311l2.334,13.58l-7.741,4.648C12.651,23.94,11.931,24,11.931,24s-0.654-0.08-0.905-0.218l-7.689-4.528L17.346,5.251L17.346,5.251z"></path><path fill="#DEB023" d="M17.832,5.015c-0.151,0-0.32,0.077-0.487,0.236L3.336,19.254l7.689,4.528C11.276,23.921,11.931,24,11.931,24s0.721-0.06,0.992-0.211l1.595-0.958L18.021,5.06C17.963,5.03,17.9,5.015,17.832,5.015L17.832,5.015z"></path></svg>